<?xml version="1.0" standalone="no"?>
<!DOCTYPE svg PUBLIC "-//W3C//DTD SVG 20010904//EN"
 "http://www.w3.org/TR/2001/REC-SVG-20010904/DTD/svg10.dtd">
<svg version="1.0" xmlns="http://www.w3.org/2000/svg"
 width="700.000000pt" height="700.000000pt" viewBox="0 0 700.000000 700.000000"
 preserveAspectRatio="xMidYMid meet">
<metadata>
Created by potrace 1.11, written by Peter Selinger 2001-2013
</metadata>
<g transform="translate(0.000000,700.000000) scale(0.100000,-0.100000)"
fill="#000000" stroke="none">
<path d="M840 6973 c-85 -51 -257 -181 -298 -224 -51 -56 -142 -172 -142 -182
0 -4 -33 -49 -73 -100 -40 -50 -93 -121 -117 -157 -25 -36 -61 -83 -81 -106
-39 -44 -47 -66 -98 -280 l-31 -131 0 -2896 0 -2897 1098 0 1099 0 26 123 c34
155 33 151 56 347 43 369 44 449 8 516 -73 132 -74 136 -56 255 12 74 11 77
-15 125 -15 27 -51 74 -80 104 -127 131 -257 309 -275 378 -9 30 -9 53 0 87
20 79 -9 113 -106 127 -19 3 -20 11 -21 178 -1 96 -4 225 -7 285 -3 61 -2 94
2 75 l7 -35 8 33 c10 41 -20 186 -36 176 -13 -8 -1 68 12 76 4 3 11 27 15 55
4 27 42 144 85 260 74 199 94 260 188 570 46 150 103 364 127 480 10 44 21 94
26 110 23 82 100 496 113 615 33 286 10 512 -101 960 -33 135 -154 497 -187
558 -8 15 -30 68 -50 117 -39 100 -144 342 -170 393 l-17 32 -432 0 -432 -1
-45 -26z"/>
<path d="M3880 6970 c0 -5 5 -10 10 -10 6 0 10 5 10 10 0 6 -4 10 -10 10 -5 0
-10 -4 -10 -10z"/>
<path d="M2701 6954 c0 -11 3 -14 6 -6 3 7 2 16 -1 19 -3 4 -6 -2 -5 -13z"/>
<path d="M3855 6940 c-3 -5 -2 -10 4 -10 5 0 13 5 16 10 3 6 2 10 -4 10 -5 0
-13 -4 -16 -10z"/>
<path d="M2913 6928 c22 -59 207 -325 280 -403 41 -44 32 -78 -44 -169 -58
-69 -78 -86 -121 -100 -9 -3 -24 -19 -33 -36 -20 -38 -7 -88 32 -125 23 -21
25 -28 19 -70 -3 -26 -15 -62 -26 -80 -11 -18 -20 -41 -20 -51 0 -17 1 -17 14
2 8 10 17 16 21 12 13 -12 63 -173 74 -234 6 -32 15 -105 20 -161 12 -112 51
-291 81 -368 40 -102 110 -360 155 -567 61 -280 96 -431 145 -613 68 -257 148
-574 180 -720 64 -292 120 -494 205 -750 18 -55 49 -149 69 -210 19 -60 49
-146 65 -190 29 -77 62 -178 211 -645 103 -322 117 -368 140 -455 12 -44 36
-134 54 -200 53 -188 147 -558 179 -702 l20 -93 309 0 308 0 0 35 c0 22 -6 38
-15 41 -11 5 -12 11 -4 25 5 11 14 17 18 15 4 -3 6 5 5 17 -1 12 -3 26 -3 30
-2 18 -21 -6 -22 -26 0 -14 -2 -16 -6 -7 -9 30 -28 65 -38 72 -6 5 -6 11 2 19
11 11 9 16 -43 110 -15 26 -6 65 10 49 8 -8 7 -13 -3 -19 -9 -6 -10 -11 -2
-15 6 -4 11 -3 11 2 0 15 124 14 155 -2 31 -16 92 -10 113 11 11 11 9 13 -15
14 -15 1 -40 0 -55 -1 -16 -1 -28 3 -28 9 0 6 10 11 23 11 12 0 29 4 36 9 19
12 -12 20 -94 23 -41 2 -59 7 -58 15 3 14 -28 6 -38 -10 -10 -15 -29 2 -29 25
0 17 -5 20 -28 16 -16 -2 -33 1 -38 6 -10 12 -30 63 -46 116 -5 19 -15 41 -20
47 -6 7 -8 20 -4 28 4 11 2 14 -6 9 -8 -5 -9 0 -5 17 4 13 7 27 7 32 0 4 11 7
24 7 13 0 29 6 35 14 7 8 28 16 49 19 20 3 59 11 86 19 39 11 51 19 57 40 l7
26 -102 4 c-55 3 -109 1 -118 -4 -11 -5 -26 -4 -39 4 -18 11 -22 11 -26 0 -7
-19 -31 3 -49 46 -10 26 -11 38 -3 48 8 10 5 19 -14 36 -13 13 -27 34 -31 48
-6 19 -5 21 3 10 9 -13 11 -13 11 2 0 30 -19 68 -35 68 -11 0 -15 10 -15 35 0
19 -4 35 -9 35 -5 0 -14 15 -21 33 -16 42 -25 66 -39 100 -6 15 -11 35 -11 43
0 8 -9 34 -19 57 -11 24 -23 56 -27 72 -4 17 -13 40 -21 51 -8 13 -12 34 -8
50 3 16 2 23 -1 16 -7 -16 -29 21 -39 67 -4 17 -11 33 -16 36 -5 4 -9 14 -9
23 0 9 -7 30 -16 47 -8 16 -12 40 -9 53 3 13 2 21 -3 18 -5 -3 -19 18 -31 47
-12 29 -29 67 -36 84 -8 18 -12 39 -9 48 4 8 2 15 -4 15 -5 0 -13 12 -17 28
-3 15 -12 41 -20 57 -14 31 -27 67 -29 75 -1 3 -7 15 -13 26 -7 12 -15 36 -18
55 -3 19 -10 36 -16 37 -5 2 -9 9 -9 15 0 7 -6 23 -13 37 -7 14 -21 48 -31 75
-10 28 -29 73 -41 100 -38 84 -56 146 -50 169 5 16 4 18 -4 6 -9 -13 -11 -13
-15 0 -3 8 -13 35 -21 60 -9 25 -20 60 -25 78 -8 31 -7 32 25 32 19 0 36 4 40
9 3 5 20 13 38 16 61 13 207 97 264 151 7 7 17 14 21 16 15 5 126 161 147 206
11 23 23 42 28 42 4 0 7 8 7 18 0 10 8 25 18 33 22 20 62 68 62 74 0 3 8 14
18 24 22 25 32 38 62 81 13 19 27 37 31 40 11 8 79 111 79 119 0 5 9 16 21 27
11 10 44 50 72 89 29 38 60 79 69 89 10 11 38 49 62 85 25 36 77 111 115 166
71 101 180 268 214 328 11 18 36 55 57 82 64 84 70 102 60 176 -15 100 -70
338 -89 384 -5 11 -14 40 -21 65 -7 25 -20 61 -30 80 -10 19 -48 96 -86 170
-96 192 -147 289 -177 337 -25 40 -26 43 -11 73 20 39 12 126 -17 186 -12 25
-65 84 -140 154 -66 62 -129 130 -139 151 -16 30 -27 39 -56 45 -46 8 -127
-10 -165 -37 l-29 -20 -82 53 c-106 69 -187 113 -194 105 -3 -3 4 -27 16 -54
27 -59 80 -212 80 -230 0 -15 -23 -17 -48 -3 -9 5 -88 28 -176 50 -87 22 -179
49 -203 61 -37 18 -68 24 -145 29 -5 0 -8 7 -8 15 0 8 -4 15 -10 15 -5 0 -6 7
-3 17 4 10 2 14 -5 9 -6 -4 -16 8 -23 29 -7 19 -19 35 -26 35 -7 0 -13 -3 -13
-8 0 -4 -10 -18 -23 -32 -12 -14 -33 -48 -46 -77 -21 -46 -23 -61 -18 -133 4
-44 11 -89 16 -99 6 -10 14 -44 17 -76 l7 -57 -77 79 c-42 43 -91 103 -107
134 -16 30 -52 82 -78 115 -27 33 -58 82 -70 110 -38 85 -45 96 -86 135 -72
68 -110 99 -122 99 -6 0 -13 3 -15 8 -1 4 -43 27 -93 52 -49 25 -110 59 -135
75 -25 17 -56 35 -70 42 -14 6 -47 30 -74 54 -28 24 -47 36 -43 27z m1725
-727 c3 -8 -1 -12 -9 -9 -7 2 -15 10 -17 17 -3 8 1 12 9 9 7 -2 15 -10 17 -17z
m299 -5243 c-3 -8 -6 -5 -6 6 -1 11 2 17 5 13 3 -3 4 -12 1 -19z m87 -212 c-3
-15 -8 -25 -11 -23 -2 3 -1 17 3 31 3 15 8 25 11 23 2 -3 1 -17 -3 -31z m175
-380 c-9 -8 -10 -7 -5 7 3 10 7 24 7 30 1 7 3 4 6 -7 3 -10 -1 -23 -8 -30z"/>
<path d="M2680 6919 c0 -5 5 -7 10 -4 6 3 10 8 10 11 0 2 -4 4 -10 4 -5 0 -10
-5 -10 -11z"/>
<path d="M2660 6877 c-31 -47 -39 -68 -46 -123 -4 -37 -9 -51 -15 -43 -12 19
-11 -2 2 -39 11 -31 95 -109 106 -99 3 4 -2 13 -11 22 -22 22 -34 47 -56 110
-15 44 -16 56 -5 72 14 20 48 114 42 119 -1 2 -9 -7 -17 -19z"/>
<path d="M3720 6796 c0 -10 36 -55 98 -120 29 -31 48 -44 51 -35 2 7 -1 15 -7
17 -7 2 -12 10 -12 18 0 8 -4 13 -10 12 -5 -2 -35 24 -65 57 -30 33 -55 56
-55 51z"/>
<path d="M2495 6760 c3 -5 8 -10 11 -10 2 0 4 5 4 10 0 6 -5 10 -11 10 -5 0
-7 -4 -4 -10z"/>
<path d="M2555 6710 c3 -5 8 -10 11 -10 2 0 4 5 4 10 0 6 -5 10 -11 10 -5 0
-7 -4 -4 -10z"/>
<path d="M4411 6694 c0 -11 3 -14 6 -6 3 7 2 16 -1 19 -3 4 -6 -2 -5 -13z"/>
<path d="M2720 6556 c0 -2 8 -10 18 -17 15 -13 16 -12 3 4 -13 16 -21 21 -21
13z"/>
<path d="M4026 6415 c4 -8 8 -15 10 -15 2 0 4 7 4 15 0 8 -4 15 -10 15 -5 0
-7 -7 -4 -15z"/>
<path d="M3667 1855 c2 -27 8 -80 14 -117 12 -88 11 -244 -3 -338 -17 -115
-14 -172 14 -345 33 -203 46 -309 53 -460 3 -66 14 -181 25 -255 11 -74 22
-181 26 -238 l7 -102 133 0 c74 0 134 2 134 5 0 2 -9 27 -20 55 -11 28 -20 64
-20 81 0 17 -9 51 -19 77 -12 28 -22 83 -25 138 -3 50 -13 122 -22 160 -8 38
-20 105 -25 149 -14 125 -36 267 -47 305 -6 19 -15 73 -22 120 -6 47 -25 132
-41 190 -27 95 -74 289 -115 475 -8 38 -23 88 -33 110 l-18 40 4 -50z"/>
<path d="M4831 1284 c0 -11 3 -14 6 -6 3 7 2 16 -1 19 -3 4 -6 -2 -5 -13z"/>
<path d="M5490 1238 c1 -31 16 -39 46 -23 16 8 36 15 44 15 13 0 13 1 0 10
-22 14 -90 13 -90 -2z"/>
<path d="M5643 1233 c9 -2 23 -2 30 0 6 3 -1 5 -18 5 -16 0 -22 -2 -12 -5z"/>
<path d="M6549 1200 c-8 -5 -38 -11 -66 -13 -29 -2 -59 -11 -67 -20 -20 -19
-20 -27 -2 -27 8 0 16 -5 18 -12 5 -15 76 -12 94 3 8 7 12 20 9 30 -5 16 -1
19 29 19 38 0 56 14 30 24 -20 8 -26 7 -45 -4z"/>
<path d="M5414 1185 c-8 -19 2 -45 16 -45 5 0 10 14 10 30 0 31 -16 41 -26 15z"/>
<path d="M6640 1185 c0 -17 2 -18 24 -9 23 9 20 24 -4 24 -11 0 -20 -7 -20
-15z"/>
<path d="M5490 1146 c0 -8 7 -16 15 -20 10 -4 15 1 15 14 0 11 -7 20 -15 20
-8 0 -15 -6 -15 -14z"/>
<path d="M6305 1150 c3 -5 8 -10 11 -10 2 0 4 5 4 10 0 6 -5 10 -11 10 -5 0
-7 -4 -4 -10z"/>
<path d="M6330 1140 c0 -24 15 -27 24 -4 9 22 8 24 -9 24 -8 0 -15 -9 -15 -20z"/>
<path d="M6375 1150 c3 -5 8 -10 11 -10 2 0 4 5 4 10 0 6 -5 10 -11 10 -5 0
-7 -4 -4 -10z"/>
<path d="M6603 1153 c-48 -5 -56 -18 -17 -27 36 -9 84 2 84 20 0 8 -6 13 -12
12 -7 -1 -32 -3 -55 -5z"/>
<path d="M4954 1075 c-5 -20 -9 -23 -15 -13 -6 9 -9 9 -9 1 0 -18 19 -26 26
-10 3 9 14 12 28 10 13 -3 27 0 30 6 4 6 0 11 -11 11 -11 0 -24 5 -30 11 -9 9
-14 5 -19 -16z"/>
<path d="M6880 1049 c0 -8 -16 -10 -50 -5 -32 4 -50 3 -50 -4 0 -12 11 -14 63
-11 28 2 37 -1 37 -13 0 -12 10 -16 35 -16 19 0 35 -4 35 -9 0 -4 11 -6 25 -3
19 3 25 10 25 32 0 23 -5 29 -31 34 -49 9 -89 7 -89 -5z"/>
<path d="M5158 973 c23 -2 61 -2 85 0 23 2 4 4 -43 4 -47 0 -66 -2 -42 -4z"/>
<path d="M5727 934 c-3 -3 -3 -12 0 -20 6 -17 -1 -18 -29 -3 -14 8 -23 8 -31
0 -6 -6 -22 -11 -36 -11 -15 0 -33 -5 -41 -10 -13 -9 -13 -11 0 -20 8 -5 27
-10 42 -10 15 0 30 -5 34 -11 4 -8 9 -7 15 2 7 11 12 12 28 2 17 -11 21 -10
26 6 3 12 16 18 38 18 54 2 91 9 116 22 37 20 6 32 -66 24 -44 -4 -63 -2 -63
6 0 12 -22 15 -33 5z"/>
<path d="M6730 920 c-35 -5 -41 -8 -25 -14 11 -4 32 -14 48 -22 15 -9 36 -12
47 -9 21 7 28 25 9 25 -6 0 -9 7 -5 15 6 16 2 16 -74 5z"/>
<path d="M5760 814 c0 -18 5 -25 17 -22 24 5 26 21 3 36 -18 11 -20 10 -20
-14z"/>
<path d="M5580 790 c-23 -7 -1 -10 85 -10 3 0 6 3 8 8 3 10 -63 12 -93 2z"/>
<path d="M5760 746 c0 -16 27 -29 41 -20 19 11 9 34 -16 34 -15 0 -25 -6 -25
-14z"/>
<path d="M6140 540 c0 -5 5 -10 10 -10 6 0 10 5 10 10 0 6 -4 10 -10 10 -5 0
-10 -4 -10 -10z"/>
<path d="M6271 533 c-6 -10 -11 -12 -11 -5 0 8 -16 12 -46 12 -38 0 -45 -3
-42 -17 3 -14 13 -18 43 -17 80 3 110 6 98 10 -7 3 -9 12 -6 20 8 20 -24 18
-36 -3z"/>
<path d="M6338 490 c12 -5 22 -14 22 -20 0 -12 -37 -14 -42 -1 -1 4 -12 5 -23
0 -19 -8 -19 -8 3 -15 24 -7 31 -44 9 -44 -14 0 -53 -37 -46 -44 19 -16 55
-26 96 -25 26 0 42 3 36 6 -23 9 -13 33 16 39 15 3 40 17 54 30 20 18 27 21
36 10 9 -10 47 -13 94 -7 17 2 5 17 -25 29 -57 23 -83 37 -89 46 -4 5 -19 6
-35 2 -19 -5 -24 -10 -15 -15 9 -6 7 -10 -8 -14 -16 -4 -21 0 -21 14 0 16 -7
19 -42 18 -36 0 -39 -2 -20 -9z"/>
<path d="M6968 453 c6 -2 18 -2 25 0 6 3 1 5 -13 5 -14 0 -19 -2 -12 -5z"/>
<path d="M6071 395 c14 -14 169 -20 169 -6 0 11 -23 14 -122 15 -38 1 -54 -2
-47 -9z"/>
<path d="M6896 313 c9 -38 12 -40 28 -18 9 12 15 15 20 7 4 -7 18 -12 32 -12
19 0 24 5 24 25 0 19 -5 25 -23 25 -13 0 -28 -5 -35 -12 -9 -9 -15 -9 -24 0
-20 20 -29 14 -22 -15z"/>
<path d="M5463 304 c-7 -18 17 -38 31 -24 11 11 1 40 -14 40 -6 0 -13 -7 -17
-16z"/>
<path d="M6695 299 c-4 -6 -4 -13 -1 -16 8 -8 36 5 36 17 0 13 -27 13 -35 -1z"/>
<path d="M5809 239 c-8 -4 -22 -6 -31 -3 -21 6 -25 -11 -5 -19 7 -3 25 -3 39
0 14 3 29 0 32 -6 5 -7 14 -7 31 1 27 12 33 27 13 29 -7 1 -25 3 -39 4 -14 2
-32 -1 -40 -6z"/>
<path d="M6132 228 c-18 -18 -15 -28 8 -28 13 0 20 7 20 20 0 23 -10 26 -28 8z"/>
<path d="M5260 201 c-22 -6 -23 -8 -7 -14 24 -9 24 -9 31 8 3 8 4 15 3 14 -1
-1 -13 -4 -27 -8z"/>
<path d="M5786 186 c-36 -16 -21 -23 69 -32 45 -5 65 -11 65 -20 0 -8 9 -14
19 -14 19 0 19 2 3 41 -9 23 -18 37 -20 31 -2 -6 -9 -9 -15 -7 -37 11 -96 11
-121 1z"/>
<path d="M5950 195 c0 -14 47 -49 62 -47 9 2 27 -2 39 -8 23 -13 73 -5 64 10
-3 6 -17 10 -30 10 -13 0 -27 5 -30 10 -3 6 -19 10 -35 10 -16 0 -32 5 -35 10
-6 10 -35 14 -35 5z"/>
<path d="M5360 171 c0 -22 16 -27 40 -11 17 10 14 15 -17 24 -19 6 -23 3 -23
-13z"/>
<path d="M5272 138 c2 -20 8 -23 48 -24 25 -1 36 1 25 4 -11 2 -26 13 -33 23
-18 26 -42 24 -40 -3z"/>
<path d="M5428 132 c-16 -3 -16 -5 -4 -18 16 -15 36 -19 36 -6 0 16 -16 28
-32 24z"/>
<path d="M5600 102 c0 -5 33 -12 73 -15 39 -3 83 -9 96 -13 19 -6 22 -4 19 12
-3 17 -14 19 -96 22 -50 1 -92 -1 -92 -6z"/>
<path d="M5257 83 c-3 -5 -1 -17 4 -28 7 -17 8 -17 8 8 1 27 -4 34 -12 20z"/>
<path d="M6400 75 c0 -9 9 -15 24 -15 14 0 28 -4 31 -10 9 -15 25 -12 25 5 0
8 -9 19 -19 25 -29 15 -61 12 -61 -5z"/>
<path d="M6528 82 c-25 -2 -38 -8 -38 -18 0 -20 19 -26 77 -22 l49 3 -25 20
c-18 14 -38 19 -63 17z"/>
<path d="M5276 50 c-9 -48 -8 -50 24 -50 23 0 30 4 30 20 0 11 5 20 10 20 6 0
10 -9 10 -19 0 -17 4 -18 41 -10 22 5 44 7 49 4 5 -3 15 2 23 10 9 8 20 15 26
15 6 0 11 4 11 9 0 4 -28 11 -62 14 -35 4 -84 9 -109 13 -46 6 -46 6 -53 -26z"/>
<path d="M5672 71 c-19 -12 8 -22 38 -14 16 4 18 8 8 14 -17 11 -29 11 -46 0z"/>
<path d="M6262 20 c0 -14 2 -19 5 -12 2 6 2 18 0 25 -3 6 -5 1 -5 -13z"/>
<path d="M6310 20 c0 -16 7 -20 30 -20 23 0 30 4 30 20 0 16 -7 20 -30 20 -23
0 -30 -4 -30 -20z"/>
<path d="M5646 14 c-4 -11 8 -14 56 -14 71 0 68 15 -4 22 -34 4 -48 2 -52 -8z"/>
<path d="M6854 9 c-13 -5 -3 -8 29 -8 26 -1 47 1 47 3 0 8 -58 12 -76 5z"/>
</g>
</svg>
